<?xml version="1.0" encoding="UTF-8"?>
<svg width="156.59mm" height="101.24mm" version="1.1" viewBox="0 0 156.59 101.24" xmlns="http://www.w3.org/2000/svg" xmlns:cc="http://creativecommons.org/ns#" xmlns:dc="http://purl.org/dc/elements/1.1/" xmlns:rdf="http://www.w3.org/1999/02/22-rdf-syntax-ns#">
 <metadata>
  <rdf:RDF>
   <cc:Work rdf:about="">
    <dc:format>image/svg+xml</dc:format>
    <dc:type rdf:resource="http://purl.org/dc/dcmitype/StillImage"/>
    <dc:title/>
   </cc:Work>
  </rdf:RDF>
 </metadata>
 <g transform="translate(-19.583 -23.239)">
  <g fill="#282828" fill-rule="evenodd" stroke="#282828" stroke-miterlimit="22.926" stroke-width=".39239">
   <path d="m46.9 70.034c14.979 0 27.124 12.143 27.124 27.122 0 14.979-12.145 27.124-27.124 27.124-14.979 0-27.122-12.145-27.122-27.124 0-14.979 12.143-27.122 27.122-27.122z"/>
   <path d="m97.88 70.034c14.979 0 27.122 12.143 27.122 27.122 0 14.979-12.143 27.124-27.122 27.124-14.979 0-27.124-12.145-27.124-27.124 0-14.979 12.145-27.122 27.124-27.122z"/>
   <path d="m148.86 70.034c14.979 0 27.122 12.143 27.122 27.122 0 14.979-12.143 27.124-27.122 27.124-14.982 0-27.124-12.145-27.124-27.124 0-14.979 12.143-27.122 27.124-27.122z"/>
  </g>
  <g fill="#fdfdfd">
   <path d="m56.802 76.621-0.292 0.60565-0.0189-8e-3 -0.12167-0.0595-0.24334-0.11356-0.12167-0.0541-0.12167-0.0568-0.24875-0.10815-0.12167-0.0514-0.12438-0.0541-0.12438-0.0514-0.12707-0.0487-0.12438-0.0514-0.12437-0.0487-0.12708-0.0487-0.12708-0.046-0.12708-0.0487-0.25415-0.0919-0.12708-0.0433-0.12978-0.0433-0.12708-0.0433-0.12978-0.0433-0.25956-0.0811-0.04866-0.0162 0.19467-0.64351 0.05406 0.0162 0.13249 0.0433 0.13519 0.0406 0.13249 0.046 0.13248 0.0433 0.26498 0.0919 0.12978 0.046 0.13248 0.0487 0.38934 0.14601 0.38934 0.15411 0.12708 0.0541 0.12978 0.054 0.25415 0.10815 0.25416 0.11357 0.12438 0.0568 0.12708 0.0594 0.12438 0.0568 0.12438 0.0595z"/>
   <path d="m62.415 80.457-0.45694 0.49479-0.08652-0.0811-0.19467-0.17844-0.10004-0.0865-0.10004-0.0892-0.20009-0.17304-0.10273-0.0865-0.10004-0.0865-0.41098-0.33527-0.10545-0.0811-0.10545-0.0838-0.10545-0.0784-0.21089-0.16223-0.10545-0.0784-0.32445-0.23522-0.2163-0.15141-0.11085-0.0757-0.0028-3e-3 0.37582-0.55969 0.0081 6e-3 0.11085 0.0784 0.11356 0.0784 0.11085 0.0784 0.11356 0.0811 0.10815 0.0811 0.22171 0.16223 0.10815 0.0811 0.11085 0.0838 0.2163 0.16764 0.10815 0.0865 0.10545 0.0838 0.31634 0.25956 0.2109 0.17845 0.30823 0.26768 0.20549 0.18385 0.10004 0.0919z"/>
   <path d="m66.654 85.776-0.58132 0.34068-0.04866-0.0865-0.06762-0.11356-0.06762-0.11626-0.28119-0.45423-0.07031-0.11087-0.07299-0.11355-0.146-0.22171-0.07571-0.11085-0.07301-0.11086-0.0757-0.10815-0.07841-0.11085-0.07571-0.10816-0.07841-0.10815-0.0757-0.10815-0.08112-0.10545-0.07841-0.10815-0.07841-0.10544-0.16223-0.2109-0.08382-0.10545-0.08112-0.10274-0.01081-0.0162 0.52182-0.42178 0.01619 0.0189 0.08381 0.10545 0.16764 0.21631 0.08382 0.11084 0.08111 0.10815 0.08382 0.11086 0.08111 0.11085 0.07841 0.11086 0.08111 0.11086 0.07841 0.11085 0.15682 0.22712 0.0757 0.11356 0.07841 0.11355 0.07571 0.11357 0.073 0.11625 0.07571 0.11356 0.21901 0.34879 0.073 0.11897 0.0703 0.11626 0.14059 0.23793z"/>
   <path d="m69.39 92.008-0.63268 0.22442-0.03517-0.0973-0.04596-0.12978-0.04866-0.12708-0.04596-0.12978-0.09733-0.25415-0.20549-0.50832-0.16222-0.37312-0.17034-0.37312-0.11356-0.24334-0.11896-0.24334-0.06216-0.12167-0.05946-0.12167-0.06216-0.11896-0.06216-0.12167-0.03788-0.0676 0.59213-0.31904 0.04056 0.0757 0.06486 0.12167 0.06216 0.12437 0.06486 0.12437 0.06216 0.12438 0.05946 0.12707 0.06216 0.12438 0.17845 0.38123 0.17034 0.38123 0.05676 0.12978 0.16222 0.38934 0.05136 0.12979 0.05136 0.13248 0.05136 0.12978 0.04866 0.13249 0.05136 0.13248 0.04866 0.13249 0.04596 0.13518z"/>
   <path d="m71.662 97.699-0.63539 0.22441-0.03517-0.0973-0.09192-0.25957-0.04866-0.12708-0.04866-0.12978-0.04866-0.12708-0.10275-0.25415-0.05136-0.12438-0.05136-0.12707-0.10815-0.24875-0.05406-0.12708-0.05406-0.12167-0.11356-0.24875-0.05676-0.12166-0.05946-0.12437-0.11896-0.24335-0.05946-0.11896-0.06216-0.12167-0.06216-0.11897-0.06216-0.12167-0.03788-0.0703 0.59483-0.31635 0.03788 0.073 0.12978 0.24874 0.18657 0.37312 0.05946 0.12708 0.06216 0.12708 0.05946 0.12437 0.05676 0.12708 0.05946 0.12978 0.05676 0.12708 0.05399 0.12707 0.05676 0.12979 0.16223 0.38934 0.05136 0.12978 0.05406 0.13249 0.04866 0.12978 0.05136 0.13248 0.146 0.39746z"/>
   <path d="m74.046 95.312-0.60024-0.30282 0.05676-0.11356 0.18656-0.38123 0.05946-0.12707 0.06216-0.12978 0.05676-0.12979 0.05946-0.12978 0.11356-0.25956 0.11356-0.26498 0.10815-0.26496 0.20549-0.52994 0.04866-0.13249 0.04866-0.13519 0.09192-0.26496 0.04596-0.1352 0.0189-0.0568 0.63809 0.2109-0.0189 0.0622-0.04596 0.13789-0.04866 0.13519-0.09734 0.27579-0.05136 0.13789-0.05136 0.13519-0.05406 0.13789-0.05136 0.13789-0.05406 0.13519-0.05676 0.13789-0.17033 0.40557-0.11896 0.27037-0.05946 0.13249-0.06216 0.13249-0.05946 0.13248-0.06216 0.13249-0.06486 0.13248-0.06216 0.12978-0.06486 0.12978z"/>
   <path d="m68.869 105.41-0.57049-0.3596 0.0055-0.0108 0.073-0.11355 0.07029-0.11357 0.2109-0.34878 0.06763-0.11626 0.06762-0.11897 0.06762-0.11626 0.06486-0.11896 0.06762-0.11898 0.06486-0.11896 0.06216-0.11897 0.06486-0.12166 0.06216-0.11897 0.12437-0.24334 0.05946-0.12437 0.06216-0.12167 0.05946-0.12167 0.05676-0.12437 0.05946-0.12438 0.11356-0.24874 0.05406-0.12709 0.01348-0.0297 0.61916 0.26767-0.01619 0.0352-0.05676 0.12708-0.05946 0.12978-0.05946 0.12708-0.05946 0.12978-0.05946 0.12708-0.06216 0.12708-0.05946 0.12707-0.06486 0.12438-0.06216 0.12707-0.19467 0.37313-0.06486 0.12167-0.06762 0.12436-0.13519 0.24335-0.14059 0.24334-0.07031 0.11896-0.07029 0.12168-0.21901 0.35689-0.07299 0.11626z"/>
   <path d="m65.116 111.32-0.52453-0.41908 0.05406-0.0703 0.08382-0.10275 0.24334-0.31634 0.07841-0.10544 0.08111-0.10815 0.07841-0.10546 0.07841-0.10815 0.07571-0.10815 0.07841-0.10815 0.0757-0.11085 0.07571-0.10815 0.07299-0.11086 0.07571-0.11086 0.146-0.2217 0.07301-0.11356 0.07029-0.11086 0.28119-0.45423 0.06763-0.11626 0.06762-0.11356 0.01348-0.0244 0.58402 0.33527-0.01619 0.0271-0.14059 0.23794-0.0703 0.11626-0.073 0.11626-0.0703 0.11896-0.07571 0.11627-0.073 0.11626-0.07301 0.11356-0.0757 0.11626-0.07571 0.11357-0.07841 0.11355-0.0757 0.11356-0.07841 0.11355-0.07842 0.11086-0.07841 0.11356-0.08111 0.11086-0.07841 0.11085-0.08111 0.11085-0.08382 0.11086-0.08111 0.10815-0.08382 0.10815-0.08381 0.11085-0.08382 0.10815-0.08387 0.10546z"/>
   <path d="m59.697 116.02-0.38123-0.55698 0.06216-0.0406 0.11085-0.0757 0.10815-0.0757 0.10815-0.0784 0.10815-0.0757 0.2163-0.15682 0.10545-0.0811 0.10545-0.0784 0.31634-0.24333 0.10545-0.0838 0.10274-0.0838 0.10275-0.0811 0.10275-0.0865 0.10274-0.0838 0.10274-0.0865 0.10004-0.0838 0.10005-0.0892 0.20007-0.17304 0.10004-0.0892 0.19467-0.17845 0.03788-0.0325 0.45693 0.49209-0.03784 0.0352-0.10005 0.0919-0.20548 0.18386-0.10275 0.0892-0.10275 0.0919-0.10274 0.0892-0.10545 0.0865-0.10545 0.0892-0.42179 0.34608-0.32445 0.25145-0.11085 0.0838-0.10815 0.0811-0.11086 0.0838-0.11085 0.0811-0.10815 0.0784-0.11356 0.0811-0.11085 0.0784-0.11356 0.0784-0.11085 0.0784z"/>
   <path d="m53.562 118.96-0.20008-0.64081 0.11626-0.0352 0.12978-0.0406 0.12978-0.0433 0.12978-0.0406 0.12708-0.0433 0.12978-0.046 0.12708-0.0433 0.38123-0.13789 0.25416-0.0973 0.24874-0.0973 0.12707-0.0514 0.24875-0.10274 0.12167-0.0541 0.24875-0.10815 0.12167-0.0541 0.36501-0.17034 0.07841-0.0379 0.29201 0.60565-0.08111 0.0406-0.12708 0.0595-0.12438 0.0568-0.12438 0.0594-0.12708 0.0568-0.12708 0.0541-0.12708 0.0568-0.12707 0.0541-0.12978 0.0541-0.12708 0.0514-0.12978 0.0514-0.12978 0.0541-0.12978 0.0487-0.12978 0.0514-0.25956 0.0973-0.13248 0.046-0.12978 0.0487-0.13249 0.046-0.13249 0.0433-0.13248 0.046-0.13249 0.0433-0.13519 0.0433-0.13249 0.0406z"/>
   <path d="m46.833 119.95v-0.67054h0.0676l0.1433-3e-3h0.1433l0.1433-3e-3 0.1406-3e-3 0.1433-6e-3 0.1406-3e-3 0.1433-8e-3 0.1406-6e-3 0.1406-8e-3 0.1433-8e-3 0.1406-0.0108 0.1406-8e-3 0.1406-0.0108 0.13789-0.0135 0.28119-0.0271 0.13789-0.0135 0.1406-0.0162 0.27579-0.0325 0.41367-0.0568h0.0028l0.10004 0.66513h-0.0055l-0.1406 0.0189-0.1433 0.0216-0.14059 0.0189-0.5732 0.0649-0.2866 0.0271-0.146 0.0135-0.1433 0.0108-0.146 0.0108-0.146 8e-3 -0.1433 8e-3 -0.29201 0.0162-0.43801 0.0162-0.14871 3e-3 -0.146 3e-3z"/>
   <path d="m40.109 118.92 0.20008-0.6435 0.01352 6e-3 0.12978 0.0406 0.12978 0.0379 0.13248 0.0379 0.12978 0.0379 0.13249 0.0379 0.13248 0.0352 0.12978 0.0352 0.13248 0.0352 0.13248 0.0325 0.13519 0.0352 0.13248 0.0325 0.13248 0.0297 0.27038 0.0595 0.13248 0.0297 0.54075 0.10816 0.13789 0.0244 0.13519 0.0244 0.13789 0.0216 0.13519 0.0216 0.13789 0.0216-0.09734 0.66513h-0.0054l-0.28119-0.0433-0.28119-0.0487-0.28119-0.0541-0.13789-0.0271-0.1406-0.0271-0.27579-0.0595-0.1406-0.0298-0.27578-0.0649-0.13519-0.0325-0.13789-0.0325-0.13789-0.0352-0.13519-0.0352-0.13519-0.0378-0.13789-0.0379-0.27038-0.0757-0.13248-0.0406-0.27038-0.0811z"/>
   <path d="m33.993 115.94 0.38123-0.55428 0.04867 0.0352 0.11085 0.073 0.11086 0.0757 0.33256 0.21901 0.56779 0.35149 0.11626 0.0676 0.11356 0.0676 0.11626 0.0676 0.46505 0.25956 0.11897 0.0649 0.3569 0.18656 0.40016 0.20008-0.29201 0.60565-0.04597-0.0216-0.12437-0.0622-0.12167-0.0622-0.12437-0.0622-0.12167-0.0622-0.36501-0.19467-0.12167-0.0676-0.12167-0.0649-0.11897-0.0676-0.11896-0.0703-0.11897-0.0676-0.23793-0.1406-0.11626-0.0703-0.11896-0.0732-0.34879-0.21901-0.11356-0.073-0.11626-0.0757-0.22712-0.15141-0.11356-0.0784z"/>
   <path d="m29.026 111.3 0.52453-0.41909 0.02974 0.0378 0.33527 0.41098 0.08652 0.10274 0.34608 0.40016 0.08922 0.10004 0.17845 0.19467 0.09193 0.0973 0.08923 0.0973 0.09193 0.0973 0.09193 0.0946 0.09193 0.0973 0.28119 0.28119 0.2839 0.27578 0.09734 0.0919 0.05949 0.0568-0.45964 0.49209-0.05949-0.0595-0.10004-0.0946-0.10004-0.0919-0.09734-0.0973-0.09734-0.0946-0.19467-0.19467-0.18926-0.19467-0.09463-0.10003-0.09463-0.0973-0.09463-0.10004-0.09193-0.10004-0.09193-0.10275-0.09193-0.10004-0.09193-0.10274-0.26767-0.30823-0.08923-0.10545-0.08922-0.10274-0.08652-0.10815-0.25956-0.31634z"/>
   <path d="m25.643 105.4 0.62728-0.24604 0.04326 0.11356 0.05137 0.12437 0.04867 0.12708 0.05137 0.12437 0.05408 0.12437 0.05137 0.12167 0.10815 0.24876 0.05408 0.12167 0.17034 0.365 0.05948 0.12167 0.05678 0.12168 0.05949 0.11896 0.05948 0.12167 0.06218 0.11897 0.05948 0.11896 0.06218 0.11897 0.06489 0.11626 0.06218 0.11896 0.19467 0.34879 0.05137 0.0919-0.58402 0.33526-0.05137-0.0946-0.0676-0.11897-0.0676-0.12167-0.0676-0.11897-0.12978-0.24334-0.06218-0.12437-0.06489-0.12167-0.06218-0.12167-0.06218-0.12437-0.05949-0.12437-0.06218-0.12438-0.05949-0.12437-0.05678-0.12438-0.05949-0.12707-0.05678-0.12438-0.11356-0.25415-0.05408-0.12708-0.05678-0.12707-0.05137-0.12979-0.05408-0.12708-0.10274-0.25956z"/>
   <path d="m24.164 98.759 0.67054-0.0487v8e-3l0.03244 0.42178 0.01352 0.1379 0.01352 0.1406 0.01352 0.13789 0.01622 0.14059 0.03245 0.27579 0.01892 0.14059 0.03786 0.27579 0.02163 0.13519 0.04326 0.27578 0.02434 0.13519 0.02434 0.13789 0.04867 0.27038 0.08111 0.40556 0.02974 0.1352 0.02163 0.10274-0.65431 0.146-0.02434-0.10544-0.02974-0.1406-0.02974-0.1379-0.02704-0.13788-0.05408-0.28119-0.09734-0.56239-0.04326-0.28119-0.03785-0.28661-0.01892-0.14059-0.01892-0.1433-0.03244-0.2866-0.01352-0.14331-0.01622-0.14329-0.01352-0.1433-0.01082-0.14601-0.01082-0.1433-0.01082-0.146z"/>
   <path d="m24.697 91.978 0.65702 0.15141-0.0081 0.0298-0.05948 0.27038-0.02974 0.13248-0.08111 0.40557-0.02434 0.13788-0.04867 0.27039-0.02434 0.13789-0.02163 0.13519-0.04326 0.27578-0.05678 0.41368-0.01622 0.13789-0.01622 0.1406-0.01622 0.13789-0.01352 0.1406-0.01352 0.13789-0.01352 0.14059-0.01082 0.1406-0.0081 0.0865-0.67054-0.0514 0.0081-0.0919 0.01082-0.1433 0.01352-0.1433 0.01622-0.14601 0.01352-0.1433 0.01622-0.14329 0.01622-0.14061 0.05678-0.42989 0.01892-0.1406 0.02163-0.14059 0.02163-0.1433 0.09734-0.56239 0.02704-0.1406 0.05408-0.27579 0.02974-0.14059 0.02974-0.13789 0.02974-0.1406 0.03244-0.13519z"/>
   <path d="m27.214 85.66 0.58131 0.33797-0.01892 0.0325-0.06489 0.11627-0.0676 0.11626-0.12978 0.23252-0.06489 0.11897-0.06218 0.11626-0.06489 0.11896-0.06218 0.11897-0.05948 0.11897-0.06218 0.11897-0.05949 0.11896-0.05948 0.12167-0.05678 0.11897-0.05949 0.12167-0.17034 0.365-0.05408 0.12438-0.05408 0.12167-0.05408 0.12437-0.05137 0.12438-0.05408 0.12437-0.05137 0.12437-0.04867 0.12438-0.02163 0.0514-0.62456-0.24605 0.02163-0.0568 0.05137-0.12708 0.05408-0.12978 0.05137-0.12707 0.05678-0.12708 0.05408-0.12708 0.17034-0.38123 0.05949-0.12438 0.05678-0.12707 0.05949-0.12438 0.06218-0.12437 0.05949-0.12167 0.12437-0.24874 0.06489-0.12167 0.06218-0.12167 0.12978-0.24335 0.13519-0.24333 0.20278-0.3569z"/>
   <path d="m31.486 80.366 0.45423 0.49479-0.01082 0.0108-0.09734 0.0919-0.09734 0.0892-0.09734 0.0919-0.18926 0.18386-0.09463 0.0946-0.09463 0.0919-0.09193 0.0946-0.09463 0.0946-0.09193 0.0946-0.09193 0.0973-0.09193 0.0946-0.08922 0.0973-0.09193 0.0973-0.08923 0.0973-0.08922 0.10004-0.08922 0.0973-0.25956 0.30012-0.08652 0.10274-0.08652 0.10004-0.16763 0.20548-0.0703 0.0865-0.52453-0.42179 0.073-0.0892 0.17304-0.21089 0.17845-0.2109 0.26767-0.30823 0.09193-0.10004 0.09193-0.10274 0.09193-0.10004 0.09193-0.10274 0.09463-0.0973 0.18926-0.20008 0.18926-0.19467 0.19467-0.19467 0.19467-0.18926 0.20008-0.18927 0.09734-0.0919 0.10274-0.0946z"/>
   <path d="m37.124 76.561 0.29201 0.60564-0.10545 0.0514-0.11897 0.0568-0.12167 0.0595-0.11897 0.0595-0.11897 0.0622-0.11897 0.0595-0.11896 0.0622-0.11897 0.0648-0.11897 0.0622-0.34879 0.19467-0.11626 0.0676-0.11626 0.0649-0.11356 0.0676-0.11626 0.0703-0.11356 0.0676-0.34068 0.2109-0.11356 0.073-0.11085 0.0703-0.11086 0.073-0.11086 0.0757-0.10545 0.0703-0.37582-0.55967 0.10815-0.0703 0.11356-0.0757 0.11626-0.0757 0.11356-0.0757 0.34879-0.21901 0.11896-0.0703 0.11626-0.073 0.11897-0.0703 0.11896-0.0676 0.11897-0.0703 0.23793-0.13518 0.12167-0.0676 0.12167-0.0649 0.12167-0.0676 0.12167-0.0622 0.24334-0.12978 0.12437-0.0621 0.12167-0.0622 0.12437-0.0595 0.12437-0.0622z"/>
   <path d="m43.634 74.596 0.09734 0.66513-0.06218 0.0108-0.13789 0.0189-0.13789 0.0216-0.13519 0.0216-0.13789 0.0243-0.13519 0.0243-0.13789 0.0243-0.13519 0.0244-0.27038 0.054-0.13519 0.0298-0.13248 0.0271-0.27038 0.0595-0.26497 0.0649-0.13519 0.0325-0.13249 0.0325-0.13248 0.0352-0.12978 0.0352-0.13248 0.0379-0.13249 0.0352-0.12978 0.0379-0.13248 0.0378-0.08111 0.0271-0.19467-0.64316 0.08652-0.027 0.13248-0.0405 0.27038-0.0757 0.13789-0.0378 0.13519-0.0351 0.13519-0.0378 0.13789-0.0325 0.13789-0.0352 0.13519-0.0325 0.27578-0.0649 0.1406-0.0298 0.27578-0.0595 0.1406-0.027 0.13789-0.027 0.1406-0.027 0.56238-0.0973 0.1406-0.0216 0.1433-0.0217z"/>
   <path d="m50.299 74.615-0.09734 0.66513-0.0703-8e-3 -0.13789-0.0216-0.13789-0.0189-0.13789-0.0162-0.13789-0.0189-0.13789-0.0162-0.1406-0.0162-0.13789-0.0135-0.28119-0.027-0.13789-0.0108-0.42179-0.0325-0.1433-8e-3 -0.1406-8e-3 -0.1406-5e-3 -0.1433-5e-3 -0.1406-5e-3 -0.1433-3e-3 -0.1406-5e-3h-0.1433l-0.1433-3e-3h-0.1433v-0.67324h0.14871l0.29201 5e-3 0.14871 3e-3 0.146 3e-3 0.29201 0.0108 0.29201 0.0162 0.1433 8e-3 0.29201 0.0216 0.1433 0.0108 0.146 0.0135 0.1433 0.0108 0.1433 0.0162 0.1433 0.0135 0.2866 0.0325 0.14331 0.0189 0.14059 0.0189 0.1433 0.0189 0.1406 0.0189z"/>
   <path d="m107.78 76.621-0.292 0.60565-0.0189-8e-3 -0.12167-0.0595-0.24333-0.11356-0.12167-0.0541-0.12438-0.0568-0.12167-0.0541-0.12437-0.0541-0.12437-0.0514-0.12438-0.0541-0.12437-0.0514-0.12438-0.0487-0.12436-0.0514-0.12709-0.0487-0.12437-0.0487-0.12708-0.046-0.12707-0.0487-0.25416-0.0919-0.12978-0.0433-0.12707-0.0433-0.12978-0.0433-0.12709-0.0433-0.25956-0.0811-0.0487-0.0162 0.19467-0.6435 0.0541 0.0162 0.13249 0.0433 0.13249 0.0406 0.13518 0.046 0.13249 0.0433 0.13248 0.046 0.12979 0.046 0.13248 0.046 0.13248 0.0487 0.38935 0.14601 0.38934 0.15411 0.25416 0.10815 0.12978 0.0541 0.12708 0.0541 0.12708 0.0567 0.12437 0.0568 0.12708 0.0568 0.12437 0.0595 0.12708 0.0567 0.12437 0.0595z"/>
   <path d="m113.39 80.457-0.45694 0.49479-0.0865-0.0811-0.0973-0.0892-0.10003-0.0892-0.0973-0.0865-0.10004-0.0892-0.20008-0.17304-0.10275-0.0865-0.10003-0.0865-0.30823-0.25145-0.10545-0.0838-0.10275-0.0811-0.10544-0.0838-0.10545-0.0784-0.21089-0.16223-0.10815-0.0784-0.10545-0.0784-0.2163-0.15682-0.10815-0.0757-0.11086-0.0757-0.10815-0.0757-5e-3 -3e-3 0.37583-0.55969 8e-3 6e-3 0.22712 0.15683 0.11085 0.0784 0.44342 0.32445 0.10815 0.0811 0.11086 0.0838 0.2163 0.16764 0.10545 0.0865 0.10815 0.0838 0.31634 0.25956 0.10545 0.0892 0.10274 0.0892 0.10545 0.0892 0.20548 0.17845 0.10274 0.0919 0.20008 0.18386z"/>
   <path d="m117.63 85.776-0.58131 0.34068-0.0487-0.0865-0.0676-0.11356-0.0703-0.11626-0.0676-0.11357-0.2109-0.34066-0.073-0.11087-0.0703-0.11355-0.073-0.11086-0.0757-0.11085-0.073-0.11085-0.0757-0.11086-0.0757-0.10815-0.0757-0.11085-0.0757-0.10816-0.15682-0.2163-0.0784-0.10545-0.0784-0.10815-0.0811-0.10544-0.0784-0.10545-0.0811-0.10545-0.0838-0.10545-0.0811-0.10274-0.0135-0.0162 0.52453-0.42178 0.0162 0.0189 0.0838 0.10545 0.16762 0.21631 0.0838 0.11084 0.0811 0.10815 0.32446 0.44343 0.0784 0.11085 0.15681 0.22712 0.15141 0.22711 0.0784 0.11357 0.073 0.11625 0.0757 0.11356 0.21901 0.34879 0.0703 0.11897 0.073 0.11626 0.0703 0.11896 0.0676 0.11897z"/>
   <path d="m120.49 92.022-0.6381 0.2163-0.0325-0.10004-0.0433-0.12978-0.046-0.12708-0.0919-0.25956-0.0973-0.25415-0.0487-0.12978-0.0514-0.12708-0.0487-0.12438-0.0514-0.12707-0.0541-0.12438-0.0514-0.12708-0.10815-0.24874-0.0568-0.12437-0.0541-0.12438-0.0568-0.12167-0.0568-0.12437-0.23793-0.48668-0.0595-0.11897-0.0378-0.0703 0.59754-0.31094 0.0378 0.0757 0.0649 0.12438 0.0595 0.12437 0.0622 0.12438 0.0622 0.12707 0.0595 0.12438 0.0567 0.12707 0.0595 0.12708 0.0568 0.12708 0.0568 0.12978 0.0568 0.12708 0.0568 0.12978 0.0541 0.12708 0.0541 0.12978 0.0514 0.12978 0.0541 0.13248 0.0514 0.12978 0.0487 0.13249 0.0514 0.12978 0.14601 0.39746 0.046 0.13518 0.046 0.13249z"/>
   <path d="m123.41 97.967-0.63809 0.2163-0.0325-0.10004-0.046-0.12978-0.0433-0.12707-0.0487-0.12978-0.046-0.12979-0.046-0.12708-0.0487-0.12707-0.0514-0.12979-0.0487-0.12708-0.0514-0.12437-0.0514-0.12708-0.0514-0.12437-0.0541-0.12708-0.16223-0.37312-0.0567-0.12437-0.0568-0.12167-0.0568-0.12437-0.0568-0.12167-0.17844-0.36501-0.0622-0.11897-0.0352-0.0703 0.59754-0.30823 0.0379 0.073 0.18656 0.37312 0.11897 0.25415 0.0595 0.12437 0.0595 0.12708 0.0568 0.12708 0.0568 0.12978 0.0568 0.12708 0.0541 0.12978 0.0541 0.12708 0.0541 0.12978 0.0541 0.13248 0.10275 0.25957 0.0514 0.13248 0.0487 0.12978 0.0514 0.13249 0.046 0.13248 0.0487 0.13249 0.046 0.13518 0.046 0.13249z"/>
   <path d="m119.66 106.12-0.55697-0.37854 0.15682-0.23522 0.073-0.11086 0.073-0.11355 0.073-0.11627 0.073-0.11355 0.0703-0.11627 0.0703-0.11355 0.14059-0.23253 0.0703-0.11897 0.0676-0.11626 0.0676-0.11897 0.0649-0.11896 0.0676-0.11897 0.0648-0.11896 0.0649-0.12168 0.0649-0.11896 0.24875-0.48668 0.11896-0.24875 0.0162-0.0297 0.60565 0.2866-0.0162 0.0352-0.0595 0.12708-0.0622 0.12708-0.0649 0.12708-0.0622 0.12437-0.0649 0.12708-0.0649 0.12437-0.0676 0.12437-0.0649 0.12167-0.13519 0.24876-0.2109 0.365-0.0703 0.11897-0.0703 0.12167-0.219 0.35689-0.0757 0.11897-0.30283 0.46505-0.0784 0.11626z"/>
   <path d="m115.67 111.4-0.52724-0.41909 0.0568-0.0676 0.0811-0.10545 0.0838-0.10544 0.0811-0.10275 0.0784-0.10815 0.0811-0.10544 0.0784-0.10545 0.23524-0.32445 0.15141-0.2163 0.15141-0.22172 0.073-0.11085 0.0757-0.11085 0.073-0.11086 0.0703-0.11085 0.073-0.11356 0.0703-0.11356 0.0703-0.11085 0.0703-0.11627 0.0676-0.11355 0.0703-0.11357 0.0676-0.11626 0.0135-0.0244 0.58401 0.33526-0.0189 0.0298-0.0676 0.11626-0.0703 0.11897-0.073 0.11896-0.0703 0.11626-0.21901 0.34879-0.0757 0.11626-0.073 0.11356-0.0784 0.11627-0.15141 0.22711-0.0784 0.11086-0.0784 0.11356-0.0784 0.11085-0.0811 0.11356-0.0811 0.11085-0.0811 0.10815-0.16222 0.22171-0.33527 0.43261z"/>
   <path d="m110.67 116.02-0.37853-0.55698 0.0622-0.0406 0.10815-0.0757 0.11086-0.0757 0.10815-0.0784 0.10815-0.0757 0.10815-0.0784 0.10545-0.0784 0.10815-0.0811 0.10544-0.0784 0.31634-0.24333 0.10275-0.0838 0.10545-0.0838 0.10274-0.0811 0.10274-0.0865 0.10275-0.0838 0.10003-0.0865 0.10275-0.0838 0.10004-0.0892 0.20008-0.17304 0.0973-0.0892 0.10004-0.0892 0.0973-0.0892 0.0379-0.0325 0.45694 0.49209-0.0406 0.0352-0.20008 0.18386-0.10275 0.0919-0.10274 0.0892-0.10274 0.0919-0.10545 0.0892-0.10274 0.0865-0.10545 0.0892-0.31634 0.25956-0.10815 0.0865-0.10545 0.0838-0.2163 0.16763-0.11086 0.0838-0.10815 0.0811-0.11085 0.0838-0.11086 0.0811-0.11085 0.0784-0.11085 0.0811-0.11086 0.0784-0.22712 0.15681z"/>
   <path d="m104.54 118.96-0.20008-0.64081 0.11626-0.0352 0.12978-0.0406 0.12978-0.0433 0.12708-0.0406 0.12978-0.0433 0.12708-0.046 0.12978-0.0433 0.38123-0.13789 0.12707-0.0487 0.12438-0.0487 0.12708-0.0487 0.12437-0.0487 0.37313-0.15412 0.24874-0.10816 0.12167-0.054 0.12438-0.0541 0.365-0.17034 0.0784-0.0379 0.29201 0.60565-0.0811 0.0406-0.12707 0.0595-0.12438 0.0568-0.12707 0.0594-0.12438 0.0568-0.12707 0.0541-0.12708 0.0568-0.12978 0.0541-0.12708 0.0541-0.12708 0.0514-0.12978 0.0514-0.12978 0.0541-0.12978 0.0487-0.12978 0.0514-0.25957 0.0973-0.13248 0.046-0.13248 0.0487-0.12978 0.046-0.13249 0.0433-0.13249 0.046-0.13518 0.0433-0.13249 0.0433-0.13249 0.0406z"/>
   <path d="m97.812 119.95v-0.67054h0.06762l0.1433-3e-3h0.1433l0.14059-3e-3 0.1433-3e-3 0.1433-6e-3 0.14059-3e-3 0.1433-8e-3 0.1406-6e-3 0.28119-0.0162 0.14059-0.0108 0.1433-8e-3 0.13789-0.0108 0.42179-0.0406 0.13789-0.0135 0.13789-0.0162 0.1406-0.0162 0.1379-0.0162 0.41367-0.0568h3e-3l0.10004 0.66513h-5e-3l-0.1406 0.0189-0.1433 0.0216-0.1433 0.0189-0.14059 0.0162-0.42991 0.0487-0.1433 0.0135-0.146 0.0135-0.1433 0.0135-0.146 0.0108-0.1433 0.0108-0.292 0.0162-0.1433 8e-3 -0.14601 8e-3 -0.292 0.0108-0.14871 6e-3 -0.292 6e-3z"/>
   <path d="m91.088 118.92 0.20008-0.6435 0.01352 6e-3 0.12978 0.0406 0.12978 0.0379 0.13249 0.0379 0.12978 0.0379 0.13248 0.0379 0.12978 0.0352 0.26497 0.0703 0.13249 0.0325 0.13519 0.0352 0.13249 0.0325 0.13249 0.0298 0.13519 0.0298 0.13248 0.0297 0.13519 0.0297 0.54076 0.10815 0.13519 0.0244 0.13789 0.0244 0.13519 0.0216 0.27579 0.0433-0.09734 0.66513h-0.0055l-0.28119-0.0433-0.2812-0.0487-0.28119-0.0541-0.13789-0.0271-0.14059-0.0271-0.13789-0.0298-0.1406-0.0297-0.13789-0.0298-0.41367-0.0973-0.13519-0.0325-0.13789-0.0352-0.1352-0.0352-0.13789-0.0378-0.40557-0.11356-0.13519-0.0406-0.13249-0.0406-0.13519-0.0406z"/>
   <path d="m84.972 115.94 0.37852-0.55428 0.05136 0.0352 0.11086 0.073 0.11085 0.0757 0.33256 0.21901 0.5678 0.35149 0.11356 0.0676 0.23253 0.13519 0.46504 0.25957 0.11897 0.0648 0.11896 0.0622 0.11626 0.0622 0.11896 0.0622 0.12168 0.0595 0.28119 0.14059-0.29201 0.60564-0.04596-0.0216-0.12437-0.0622-0.12167-0.0622-0.12437-0.0622-0.12167-0.0622-0.12438-0.0649-0.12167-0.0649-0.11897-0.0649-0.12167-0.0676-0.12167-0.0649-0.11896-0.0676-0.11897-0.0703-0.11896-0.0676-0.3569-0.21089-0.58131-0.36502-0.22712-0.15141-0.11626-0.0757-0.11356-0.0784z"/>
   <path d="m80.003 111.3 0.52723-0.41909 0.02974 0.0378 0.33527 0.41098 0.08652 0.10274 0.08382 0.10004 0.08922 0.10004 0.17304 0.20008 0.08923 0.10004 0.26768 0.29201 0.18385 0.19467 0.09193 0.0946 0.09193 0.0973 0.09193 0.0946 0.09463 0.0919 0.09463 0.0946 0.28389 0.27578 0.09734 0.0919 0.05946 0.0568-0.45965 0.49209-0.06216-0.0595-0.09733-0.0946-0.10004-0.0919-0.09733-0.0973-0.09734-0.0946-0.19467-0.19467-0.18926-0.19467-0.09463-0.10003-0.09463-0.0973-0.09463-0.10004-0.09193-0.10004-0.09193-0.10275-0.09193-0.10004-0.09193-0.10274-0.26767-0.30823-0.08922-0.10545-0.08923-0.10274-0.08652-0.10815-0.25956-0.31634z"/>
   <path d="m76.158 106.26 0.58131-0.34067 0.06216 0.10544 0.06763 0.11627 0.14059 0.23252 0.1406 0.22711 0.146 0.22712 0.073 0.11086 0.07571 0.11355 0.0757 0.11086 0.073 0.11086 0.07841 0.11085 0.07571 0.11086 0.07841 0.10814 0.07841 0.11086 0.07841 0.10815 0.07841 0.10545 0.08112 0.10815 0.07841 0.10815 0.16223 0.2109 0.16763 0.21089 0.06486 0.0811-0.52453 0.4218-0.06762-0.0838-0.08382-0.10815-0.08652-0.10815-0.08382-0.10815-0.16763-0.22171-0.08112-0.10815-0.08111-0.11355-0.16223-0.22171-0.08111-0.11357-0.23523-0.34067-0.15141-0.23252-0.07841-0.11627-0.073-0.11626-0.07571-0.11626-0.073-0.11627-0.146-0.23793-0.0703-0.11896-0.073-0.11897z"/>
   <path d="m72.375 100.1 0.59213-0.32175 0.05675 0.10815 0.06485 0.11626 0.06763 0.11897 0.06486 0.11626 0.06762 0.11897 0.06762 0.11355 0.0703 0.11627 0.06762 0.11626 0.0703 0.11356 0.07029 0.11626 0.073 0.11356 0.07029 0.11356 0.07301 0.11356 0.073 0.11086 0.07571 0.11355 0.07299 0.11086 0.07571 0.11085 0.07571 0.10815 0.07571 0.11086 0.07841 0.11085 0.07571 0.10815 0.07841 0.10815 0.08111 0.10815 0.07842 0.10815 0.06216 0.0811-0.53535 0.40557-0.06485-0.0865-0.08381-0.10815-0.08112-0.11085-0.08111-0.11356-0.07841-0.11086-0.08111-0.11356-0.15682-0.22711-0.0757-0.11356-0.07841-0.11626-0.07571-0.11356-0.0757-0.11626-0.073-0.11626-0.07571-0.11626-0.073-0.11897-0.073-0.11627-0.07299-0.11896-0.1406-0.23793-0.0703-0.12167-0.07029-0.11897-0.20278-0.36501z"/>
   <path d="m78.194 85.66 0.58131 0.33797-0.0189 0.0325-0.06762 0.11627-0.19467 0.34878-0.06486 0.11897-0.06486 0.11626-0.18656 0.3569-0.11896 0.23793-0.05946 0.12167-0.05946 0.11897-0.22711 0.48667-0.05406 0.12438-0.05406 0.12167-0.10815 0.24875-0.15412 0.37312-0.0189 0.0514-0.62727-0.24605 0.02436-0.0568 0.05136-0.12708 0.05136-0.12978 0.10815-0.25415 0.05676-0.12708 0.05406-0.12707 0.05946-0.12708 0.05676-0.12708 0.05676-0.12438 0.05946-0.12707 0.11897-0.24875 0.06216-0.12167 0.12437-0.24874 0.06216-0.12167 0.19467-0.36502 0.06763-0.12167 0.06486-0.12166 0.06762-0.11897 0.0703-0.11897 0.06762-0.11896z"/>
   <path d="m82.466 80.366 0.45424 0.49479-0.01081 0.0108-0.09734 0.0919-0.09733 0.0892-0.09734 0.0919-0.18926 0.18386-0.09463 0.0946-0.09463 0.0919-0.09463 0.0946-0.18385 0.18927-0.09193 0.0973-0.09193 0.0946-0.09193 0.0973-0.17845 0.19467-0.08923 0.10004-0.08923 0.0973-0.17304 0.20007-0.08922 0.10005-0.08382 0.10274-0.08652 0.10004-0.16763 0.20548-0.07031 0.0865-0.52453-0.42179 0.07301-0.0892 0.17304-0.21089 0.17844-0.2109 0.26767-0.30823 0.09193-0.10004 0.09193-0.10274 0.09193-0.10004 0.09193-0.10274 0.09463-0.0973 0.18927-0.20008 0.18926-0.19467 0.19467-0.19467 0.19467-0.18926 0.10005-0.0946 0.09733-0.0946 0.10004-0.0919 0.10004-0.0946z"/>
   <path d="m88.101 76.561 0.292 0.60564-0.10274 0.0514-0.12167 0.0568-0.23793 0.11897-0.12167 0.0622-0.11896 0.0595-0.11626 0.0622-0.11896 0.0649-0.11897 0.0622-0.34879 0.19468-0.11626 0.0676-0.11626 0.0649-0.11626 0.0676-0.11356 0.0703-0.11356 0.0676-0.34067 0.21089-0.11356 0.073-0.11085 0.0703-0.11086 0.073-0.11086 0.0757-0.10545 0.0703-0.37582-0.55968 0.10815-0.0703 0.22712-0.15142 0.11626-0.0757 0.34878-0.21901 0.11626-0.0703 0.11897-0.073 0.11896-0.0703 0.11897-0.0676 0.11896-0.0703 0.23793-0.13519 0.12167-0.0676 0.12167-0.0649 0.11897-0.0676 0.12167-0.0622 0.12438-0.0649 0.12167-0.0649 0.12438-0.0622 0.12167-0.0622 0.12437-0.0595 0.12437-0.0621z"/>
   <path d="m94.614 74.596 0.09733 0.66513-0.06216 0.0108-0.13789 0.0189-0.27579 0.0433-0.13519 0.0243-0.13789 0.0243-0.27038 0.0487-0.27037 0.0541-0.13519 0.0298-0.1352 0.0271-0.13248 0.0297-0.13519 0.0297-0.26498 0.0649-0.13519 0.0325-0.13249 0.0325-0.26497 0.0703-0.12978 0.0379-0.13248 0.0352-0.12978 0.0379-0.13249 0.0379-0.08111 0.0271-0.19737-0.64315 0.08652-0.027 0.13519-0.0406 0.40557-0.11355 0.13789-0.0352 0.1352-0.0378 0.13789-0.0325 0.13519-0.0352 0.41367-0.0973 0.13789-0.0297 0.1406-0.0297 0.13789-0.0297 0.14059-0.027 0.13789-0.027 0.1406-0.027 0.56238-0.0973 0.14059-0.0216 0.1433-0.0216z"/>
   <path d="m101.28 74.615-0.0973 0.66513-0.0703-8e-3 -0.13789-0.0216-0.13789-0.0189-0.13789-0.0162-0.1379-0.0189-0.1406-0.0162-0.13788-0.0162-0.1379-0.0135-0.28119-0.027-0.1406-0.0108-0.13789-0.0108-0.1433-0.0108-0.14059-0.0108-0.28119-0.0162-0.1406-5e-3 -0.1433-5e-3 -0.14059-5e-3 -0.14331-3e-3 -0.1433-5e-3h-0.14059l-0.1433-3e-3h-0.1433v-0.67324h0.146l0.14871 3e-3 0.292 5e-3 0.14872 3e-3 0.292 0.0108 0.146 8e-3 0.1433 8e-3 0.146 8e-3 0.146 0.0108 0.1433 0.0108 0.146 0.0108 0.1433 0.0135 0.146 0.0108 0.1433 0.0162 0.1433 0.0135 0.28661 0.0325 0.14059 0.0189 0.2866 0.0379 0.1406 0.0189z"/>
   <path d="m158.76 76.621-0.29201 0.60565-0.0162-8e-3 -0.12167-0.0595-0.24334-0.11356-0.12167-0.0541-0.12437-0.0568-0.12168-0.0541-0.12436-0.0541-0.12438-0.0514-0.12438-0.0541-0.12436-0.0514-0.12438-0.0487-0.12437-0.0514-0.25416-0.0973-0.12438-0.046-0.12708-0.0487-0.12706-0.046-0.12978-0.046-0.25417-0.0865-0.12977-0.0433-0.12707-0.0433-0.25958-0.0811-0.0487-0.0162 0.19468-0.6435 0.0541 0.0162 0.13247 0.0433 0.13249 0.0406 0.13249 0.046 0.13519 0.0433 0.12979 0.046 0.26496 0.0919 0.12977 0.0487 0.1325 0.0487 0.25956 0.0973 0.25956 0.10274 0.12707 0.0514 0.12979 0.0541 0.38123 0.16222 0.38123 0.17034 0.12438 0.0595 0.12438 0.0568 0.12706 0.0595z"/>
   <path d="m164.37 80.457-0.45693 0.49479-0.0865-0.0811-0.0973-0.0892-0.10004-0.0892-0.0973-0.0865-0.10004-0.0892-0.20008-0.17304-0.10275-0.0865-0.10004-0.0865-0.30822-0.25145-0.10545-0.0838-0.10275-0.0811-0.10544-0.0838-0.10545-0.0784-0.21089-0.16223-0.2163-0.15681-0.10545-0.0784-0.10816-0.0784-0.11085-0.0757-0.2163-0.15141-6e-3 -3e-3 0.37582-0.55969 8e-3 6e-3 0.22711 0.15683 0.11086 0.0784 0.44341 0.32445 0.10815 0.0811 0.10815 0.0838 0.11086 0.0838 0.10545 0.0838 0.10815 0.0865 0.10814 0.0838 0.31636 0.25956 0.10544 0.0892 0.10274 0.0892 0.10545 0.0892 0.2055 0.17845 0.10004 0.0919 0.10273 0.0919 0.10004 0.0919z"/>
   <path d="m168.61 85.776-0.5786 0.34068-0.0487-0.0865-0.0703-0.11356-0.0675-0.11626-0.0676-0.11357-0.21089-0.34066-0.073-0.11087-0.073-0.11355-0.219-0.33256-0.0757-0.11086-0.0757-0.10815-0.0757-0.11085-0.0757-0.10816-0.15682-0.2163-0.0784-0.10545-0.0784-0.10815-0.32446-0.42179-0.0811-0.10274-0.0135-0.0162 0.52453-0.42178 0.0135 0.0189 0.0865 0.10545 0.16763 0.21631 0.0838 0.11084 0.0811 0.10815 0.24334 0.33257 0.0784 0.11086 0.0811 0.11085 0.0784 0.11356 0.0757 0.11356 0.0784 0.11356 0.1514 0.22712 0.0757 0.11625 0.0757 0.11356 0.219 0.34879 0.0703 0.11897 0.073 0.11626 0.0676 0.11896 0.0703 0.11897z"/>
   <path d="m171.36 92.452-0.66231 0.1076-0.018-0.10135-0.0215-0.13409-0.024-0.13695-0.0242-0.13425-0.0269-0.13443-0.0242-0.13425-0.0269-0.13442-0.0296-0.1346-0.027-0.13172-0.0297-0.13189-0.0323-0.13476-0.0296-0.13188-0.0972-0.39617-0.0351-0.13223-0.0353-0.12953-0.0351-0.13223-0.038-0.1297-0.0353-0.12953-0.038-0.12969-0.0407-0.12987-0.038-0.1297-0.0407-0.12987-0.0252-0.07472 0.6414-0.20644 0.0248 0.0801 0.12144 0.39769 0.0403 0.13527 0.0378 0.1324 0.0752 0.27018 0.10474 0.40477 0.0348 0.13763 0.0321 0.13746 0.0323 0.13475 0.0321 0.13746 0.0881 0.41186 0.0265 0.13982 0.0267 0.13712 0.0265 0.13982 0.0267 0.13712 0.0476 0.27929z"/>
   <path d="m171.91 99.144-0.67114-0.03584 6e-3 -0.1299 0.018-0.42211 6e-3 -0.1434 7e-3 -0.28132 8.5e-4 -0.14333 4e-3 -0.14337-2e-3 -0.14061 8.5e-4 -0.14333-4e-3 -0.28657-5e-3 -0.14324-2e-3 -0.14331-8e-3 -0.14051-5e-3 -0.14325-8e-3 -0.14322-7e-3 -0.14053-0.0101-0.14046-0.0101-0.14316-0.0205-0.28091-7e-3 -0.05933 0.66974-0.05873 7e-3 0.06201 0.0132 0.14582 0.0101 0.14316 0.0102 0.14586 8e-3 0.1459 0.0102 0.14586 5e-3 0.14594 8e-3 0.1459 5e-3 0.14864 0.0103 0.29188 4e-3 0.29468-7.4e-4 0.14874-2e-3 0.29206-4e-3 0.14607-7.4e-4 0.14874-6e-3 0.14612-4e-3 0.14608-6e-3 0.1434-6e-3 0.14611-9e-3 0.14617z"/>
   <path d="m169.96 105.83-0.60648-0.28776 6e-3 -0.0104 0.11429-0.24699 0.0543-0.12097 0.0572-0.12349 0.0545-0.12366 0.0518-0.12386 0.0547-0.12637 0.0518-0.12386 0.052-0.12655 0.0518-0.12385 0.14775-0.38021 0.0468-0.12961 0.0493-0.12675 0.0466-0.12691 0.0441-0.12981 0.0467-0.1296 0.0441-0.12981 0.0412-0.12729 0.0441-0.12979 0.0416-0.13268 0.0414-0.12998 0.0387-0.13017 0.0104-0.0346 0.64545 0.19284-0.0104 0.0346-0.0834 0.27077-0.0445 0.13519-0.0443 0.13249-0.0445 0.13519-0.0443 0.1325-0.0938 0.26464-0.0471 0.13501-0.0495 0.12942-0.0992 0.26428-0.1564 0.38775-0.0523 0.13195-0.0547 0.12637-0.10963 0.25814-0.0574 0.12618-0.0576 0.12888-0.11465 0.25239-0.0601 0.126z"/>
   <path d="m166.65 111.4-0.52724-0.41909 0.0568-0.0676 0.16223-0.21089 0.0811-0.10275 0.0811-0.10815 0.0811-0.10544 0.0784-0.10545 0.23523-0.32445 0.15142-0.2163 0.1514-0.22172 0.29201-0.44341 0.073-0.11356 0.0703-0.11356 0.0703-0.11085 0.0703-0.11627 0.13518-0.22712 0.0703-0.11626 0.0135-0.0244 0.58131 0.33526-0.0162 0.0298-0.0703 0.11626-0.0676 0.11897-0.073 0.11896-0.0703 0.11626-0.21899 0.34879-0.0757 0.11626-0.0757 0.11356-0.0757 0.11627-0.0757 0.11355-0.0784 0.11356-0.0757 0.11086-0.0784 0.11356-0.0811 0.11085-0.0784 0.11356-0.0811 0.11085-0.0811 0.10815-0.16223 0.22171-0.25146 0.32446z"/>
   <path d="m161.65 116.02-0.37853-0.55698 0.0622-0.0406 0.10816-0.0757 0.11085-0.0757 0.10816-0.0784 0.10814-0.0757 0.10545-0.0784 0.10816-0.0784 0.10814-0.0811 0.10546-0.0784 0.31634-0.24333 0.10274-0.0838 0.10544-0.0838 0.10275-0.0811 0.10274-0.0865 0.10274-0.0838 0.10004-0.0865 0.10274-0.0838 0.10004-0.0892 0.10004-0.0865 0.0974-0.0865 0.20008-0.17845 0.0973-0.0892 0.0352-0.0325 0.45963 0.49209-0.0406 0.0352-0.10005 0.0919-0.10273 0.0919-0.10004 0.0919-0.10274 0.0892-0.10275 0.0919-0.10545 0.0892-0.10274 0.0865-0.10544 0.0892-0.31635 0.25956-0.10816 0.0865-0.10814 0.0838-0.10545 0.0838-0.11085 0.0838-0.10816 0.0838-0.10814 0.0811-0.11086 0.0838-0.11085 0.0811-0.11085 0.0784-0.11086 0.0811-0.11356 0.0784-0.11086 0.0784-0.11356 0.0784z"/>
   <path d="m155.52 118.96-0.20008-0.64081 0.11626-0.0352 0.12979-0.0406 0.12977-0.0433 0.12708-0.0406 0.12978-0.0433 0.12708-0.046 0.12707-0.0433 0.12979-0.046 0.25415-0.0919 0.12438-0.0487 0.25415-0.0973 0.12438-0.0487 0.37312-0.15412 0.24874-0.10815 0.12167-0.0541 0.12437-0.0541 0.36501-0.17033 0.0784-0.0379 0.292 0.60565-0.0838 0.0406-0.12438 0.0595-0.12437 0.0568-0.12708 0.0594-0.12707 0.0568-0.12708 0.054-0.12708 0.0568-0.25416 0.10816-0.12977 0.0514-0.12708 0.0514-0.12978 0.0541-0.12978 0.0487-0.12978 0.0514-0.12978 0.0487-0.1325 0.0487-0.12977 0.046-0.13248 0.0487-0.13249 0.046-0.12978 0.0433-0.13519 0.046-0.26498 0.0865-0.13247 0.0406z"/>
   <path d="m148.79 119.95v-0.67054h0.0676l0.14331-3e-3h0.1433l0.14059-3e-3 0.1433-3e-3 0.1433-6e-3 0.1406-3e-3 0.1406-8e-3 0.1433-6e-3 0.28118-0.0162 0.1406-0.0108 0.1406-8e-3 0.1406-0.0108 0.28119-0.0271 0.13789-0.0135 0.1406-0.0135 0.13789-0.0162 0.14059-0.0162 0.13789-0.0162 0.41369-0.0568 0.10275 0.66513h-6e-3l-0.1433 0.0189-0.14059 0.0216-0.14329 0.0189-0.14331 0.0162-0.1406 0.0162-0.1433 0.0162-0.14601 0.0162-0.42989 0.0406-0.14601 0.0108-0.14329 0.0108-0.43801 0.0244-0.14331 8e-3 -0.146 6e-3 -0.14871 6e-3 -0.146 6e-3 -0.29201 6e-3z"/>
   <path d="m142.07 118.92 0.20007-0.6435 0.0135 6e-3 0.12979 0.0406 0.25955 0.0757 0.13249 0.0378 0.12978 0.0379 0.39746 0.10545 0.13248 0.0325 0.13249 0.0352 0.13248 0.0325 0.27038 0.0594 0.13249 0.0298 0.13518 0.0298 0.54075 0.10815 0.1352 0.0244 0.13789 0.0244 0.13519 0.0216 0.27578 0.0433-0.0973 0.66513h-6e-3l-0.2812-0.0433-0.28118-0.0487-0.42179-0.0811-0.13789-0.0271-0.13789-0.0298-0.1406-0.0298-0.13789-0.0298-0.41368-0.0973-0.13519-0.0324-0.13789-0.0352-0.13519-0.0352-0.1379-0.0378-0.40556-0.11356-0.27038-0.0811-0.13249-0.0406z"/>
   <path d="m135.95 115.94 0.37853-0.55428 0.0513 0.0352 0.11086 0.073 0.10815 0.0757 0.11086 0.073 0.11355 0.073 0.11086 0.073 0.11355 0.0703 0.11087 0.0703 0.2271 0.14059 0.11627 0.0703 0.11356 0.0676 0.11626 0.0676 0.11356 0.0676 0.23253 0.12978 0.11896 0.0649 0.11625 0.0649 0.11898 0.0648 0.11627 0.0622 0.23793 0.12438 0.11895 0.0594 0.12167 0.0595 0.16223 0.0811-0.29471 0.60565-0.292-0.146-0.12168-0.0622-0.12437-0.0622-0.365-0.19467-0.11897-0.0676-0.12167-0.0649-0.11897-0.0676-0.12167-0.0703-0.11897-0.0676-0.11896-0.0703-0.11626-0.0703-0.11897-0.0703-0.5813-0.36502-0.11357-0.0757-0.11626-0.0757-0.11356-0.0757-0.11356-0.0784z"/>
   <path d="m130.98 111.3 0.52724-0.41909 0.0298 0.0378 0.0811 0.10275 0.16763 0.20548 0.0865 0.10275 0.0838 0.10274 0.17304 0.20008 0.0892 0.10004 0.0865 0.10004 0.0892 0.10004 0.26768 0.29201 0.0919 0.0973 0.0892 0.0973 0.0919 0.0946 0.0946 0.0973 0.0919 0.0946 0.18656 0.18656 0.0946 0.0919 0.0973 0.0919 0.0946 0.0919 0.0973 0.0919 0.0568 0.0568-0.45692 0.49209-0.0622-0.0595-0.10004-0.0946-0.0973-0.0919-0.10004-0.0973-0.28931-0.28931-0.0946-0.0973-0.0973-0.0973-0.0946-0.10003-0.0919-0.0973-0.0946-0.10004-0.0919-0.10004-0.0919-0.10275-0.0919-0.10004-0.0919-0.10274-0.0892-0.10275-0.0919-0.10274-0.0892-0.10274-0.0865-0.10545-0.0892-0.10274-0.0865-0.10815-0.25956-0.31634z"/>
   <path d="m126.94 105.71 0.61376-0.27578 0.0514 0.11085 0.0541 0.12437 0.11356 0.24335 0.11897 0.24333 0.0595 0.11896 0.0594 0.12168 0.0595 0.11897 0.0622 0.12167 0.0622 0.11896 0.0622 0.11627 0.12979 0.23793 0.19467 0.34878 0.13519 0.23253 0.0703 0.11626 0.0676 0.11356 0.21089 0.34067 0.0567 0.0865-0.56778 0.3623-0.0568-0.0892-0.073-0.11627-0.073-0.11896-0.0703-0.11626-0.073-0.11897-0.1406-0.23793-0.0676-0.11897-0.0703-0.11897-0.0649-0.12167-0.0676-0.11896-0.0676-0.12167-0.12978-0.24334-0.0649-0.12438-0.0622-0.12167-0.0649-0.12437-0.0595-0.12437-0.0622-0.12438-0.0595-0.12437-0.0594-0.12708-0.0595-0.12437-0.0595-0.12708-0.0568-0.12708z"/>
   <path d="m123.71 100.44 0.61375-0.27578 0.0514 0.11085 0.0541 0.12437 0.0568 0.12167 0.0595 0.12167 0.0568 0.12167 0.11897 0.24335 0.0595 0.11896 0.0622 0.11897 0.0595 0.12167 0.0622 0.11896 0.0649 0.11897 0.0622 0.11626 0.0649 0.11896 0.12978 0.23253 0.0676 0.11896 0.0649 0.11356 0.0703 0.11626 0.0676 0.11626 0.0676 0.11357 0.1406 0.22711 0.073 0.11356 0.0541 0.0865-0.56509 0.36231-0.0595-0.0892-0.146-0.23252-0.0703-0.11897-0.073-0.11896-0.0703-0.11626-0.0676-0.11897-0.0703-0.12167-0.0676-0.11897-0.0676-0.12167-0.0676-0.11896-0.0676-0.12167-0.12978-0.24334-0.0649-0.12438-0.0622-0.12167-0.18656-0.37311-0.11897-0.24876-0.11896-0.25415-0.0568-0.12437z"/>
   <path d="m126.57 92.003 0.60835 0.2839-0.0108 0.0298-0.0595 0.12437-0.0567 0.12437-0.0568 0.12708-0.0541 0.12438-0.0568 0.12707-0.0541 0.12708-0.0514 0.12708-0.0541 0.12707-0.10274 0.25957-0.0514 0.12707-0.0973 0.25956-0.0487 0.13249-0.046 0.12978-0.0487 0.13249-0.046 0.13248-0.0433 0.12978-0.046 0.1352-0.0433 0.13248-0.0406 0.13248-0.0433 0.13519-0.0649 0.2163-0.64621-0.18926 0.0271-0.0865 0.0433-0.14059 0.0406-0.13789 0.046-0.13789 0.0433-0.13519 0.046-0.13789 0.046-0.13519 0.0487-0.13789 0.046-0.13519 0.0514-0.1352 0.0487-0.13247 0.0487-0.1352 0.0514-0.13248 0.0514-0.13519 0.0541-0.13249 0.0541-0.12978 0.10815-0.26496 0.22712-0.51913 0.0595-0.12978 0.0595-0.12708z"/>
   <path d="m129.17 85.66 0.58131 0.33797-0.0189 0.0325-0.0676 0.11627-0.0649 0.11626-0.0676 0.11626-0.0649 0.11626-0.0622 0.11897-0.0649 0.11626-0.18655 0.3569-0.11898 0.23793-0.0595 0.12167-0.0595 0.11897-0.0568 0.12167-0.0594 0.12167-0.0541 0.12166-0.0568 0.12167-0.0541 0.12438-0.0541 0.12167-0.10815 0.24875-0.15411 0.37312-0.0189 0.0514-0.62728-0.24605 0.0216-0.0568 0.0541-0.12708 0.0514-0.12978 0.10815-0.25415 0.0568-0.12708 0.0541-0.12707 0.0567-0.12708 0.0595-0.12708 0.0568-0.12438 0.0595-0.12707 0.11896-0.24875 0.0622-0.12167 0.12436-0.24874 0.0622-0.12167 0.19467-0.36502 0.0676-0.12167 0.0649-0.12166 0.0676-0.11897 0.0703-0.11897 0.0676-0.11896z"/>
   <path d="m133.45 80.366 0.45424 0.49479-0.0135 0.0108-0.0973 0.0919-0.0946 0.0892-0.0973 0.0919-0.0946 0.0919-0.0973 0.0919-0.28119 0.28119-0.0919 0.0946-0.0946 0.0946-0.0919 0.0973-0.0892 0.0946-0.0919 0.0973-0.17844 0.19467-0.0892 0.10004-0.0892 0.0973-0.0865 0.10003-0.0892 0.10004-0.0865 0.10005-0.0865 0.10274-0.0838 0.10004-0.0865 0.10274-0.0838 0.10274-0.0703 0.0865-0.52184-0.42179 0.073-0.0892 0.17305-0.21089 0.0892-0.10545 0.0865-0.10545 0.0892-0.10274 0.0919-0.10274 0.0892-0.10275 0.0919-0.10004 0.0919-0.10274 0.0919-0.10004 0.0919-0.10274 0.0946-0.0973 0.0919-0.10004 0.0946-0.10004 0.0973-0.0973 0.0946-0.0973 0.19467-0.19467 0.292-0.2839 0.10004-0.0946 0.10005-0.0919 0.10004-0.0946z"/>
   <path d="m139.08 76.561 0.29202 0.60564-0.10276 0.0514-0.12166 0.0568-0.11897 0.0595-0.12167 0.0595-0.11896 0.0622-0.11897 0.0595-0.11896 0.0622-0.11626 0.0648-0.11897 0.0622-0.11626 0.0649-0.11897 0.0649-0.11626 0.0648-0.11627 0.0676-0.11356 0.0649-0.11626 0.0676-0.11355 0.0703-0.11626 0.0676-0.22712 0.14059-0.11086 0.0703-0.11355 0.073-0.11086 0.0703-0.11356 0.073-0.11086 0.0757-0.10274 0.0703-0.37852-0.55968 0.10814-0.0703 0.11627-0.0757 0.11356-0.0757 0.11626-0.0757 0.34879-0.219 0.11625-0.0703 0.11897-0.073 0.11626-0.0703 0.11898-0.0676 0.11895-0.0703 0.12168-0.0676 0.11896-0.0676 0.12168-0.0676 0.11896-0.0649 0.12167-0.0676 0.12167-0.0622 0.12167-0.0649 0.12437-0.0649 0.12167-0.0622 0.12438-0.0622 0.12437-0.0594 0.12437-0.0622z"/>
   <path d="m145.59 74.596 0.0973 0.66513-0.0649 0.0108-0.13519 0.0189-0.27578 0.0433-0.1352 0.0243-0.13789 0.0243-0.27037 0.0487-0.27038 0.0541-0.13519 0.0298-0.13519 0.0271-0.13248 0.0297-0.13519 0.0297-0.13518 0.0325-0.39746 0.0973-0.26497 0.0703-0.13249 0.0378-0.12977 0.0352-0.1325 0.0379-0.12977 0.0378-0.0811 0.0271-0.19739-0.64315 0.0865-0.027 0.1352-0.0405 0.40556-0.11356 0.13789-0.0351 0.13519-0.0378 0.13789-0.0324 0.1352-0.0351 0.41368-0.0973 0.13789-0.0297 0.14059-0.0297 0.13789-0.0297 0.13789-0.027 0.2812-0.0541 0.56238-0.0973 0.2812-0.0433z"/>
   <path d="m152.26 74.615-0.0973 0.66513-0.0703-8e-3 -0.13789-0.0216-0.13789-0.0189-0.1379-0.0162-0.13789-0.0189-0.14059-0.0162-0.1379-0.0162-0.1406-0.0135-0.13788-0.0135-0.1406-0.0135-0.56238-0.0433-0.2812-0.0162-0.1433-5e-3 -0.28119-0.0108-0.14331-3e-3 -0.14329-5e-3h-0.1406l-0.1433-3e-3h-0.1433v-0.67324h0.146l0.14871 3e-3 0.43801 8e-3 0.14871 5e-3 0.146 5e-3 0.14331 8e-3 0.292 0.0162 0.146 0.0108 0.1433 0.0108 0.14601 0.0108 0.1433 0.0135 0.14329 0.0108 0.1433 0.0162 0.14601 0.0135 0.14329 0.0162 0.14061 0.0162 0.2866 0.0378 0.14059 0.0189 0.1433 0.0189z"/>
  </g>
  <g fill="#b0ca1e" fill-rule="evenodd" stroke="#282828" stroke-miterlimit="22.926" stroke-width=".39239">
   <path d="m46.9 78.962c10.05 0 18.196 8.1465 18.196 18.194 0 10.05-8.1465 18.196-18.196 18.196-10.047 0-18.194-8.1465-18.194-18.196 0-10.047 8.1465-18.194 18.194-18.194z"/>
   <path d="m97.88 78.962c10.047 0 18.194 8.1465 18.194 18.194 0 10.05-8.1465 18.196-18.194 18.196-10.05 0-18.196-8.1465-18.196-18.196 0-10.047 8.1465-18.194 18.196-18.194z"/>
   <path d="m148.86 78.962c10.047 0 18.194 8.1465 18.194 18.194 0 10.05-8.1465 18.196-18.194 18.196-10.05 0-18.196-8.1465-18.196-18.196 0-10.047 8.1465-18.194 18.196-18.194z"/>
  </g>
  <g fill="#282828">
   <g transform="matrix(.69217 0 0 .69217 -19.964 6.1767)">
    <g transform="translate(72.279 144.46)">
     <path d="m11.766-23.219v4.6406c-1.2188-1-2.4062-1.5156-3.4531-1.5156-0.71875 0-1.2969 0.21875-1.7188 0.65625-0.4375 0.42188-0.65625 0.96875-0.65625 1.6875 0 0.65625 0.1875 1.2188 0.54688 1.7656 0.35938 0.5 1.0469 1.1094 2.0156 1.8438 1.1406 0.85938 1.9688 1.5 2.4375 1.9375s0.875 0.85938 1.1562 1.3281c0.71875 1.0781 1.0781 2.375 1.0781 3.8594 0 1.5781-0.35938 2.9844-1.0781 4.25-0.64062 1.1875-1.5781 2.0469-2.8438 2.5781-0.9375 0.40625-1.9062 0.57812-2.9062 0.57812-1.5625 0-2.9531-0.39062-4.1406-1.2188v-4.5312c1.25 0.85938 2.4375 1.2969 3.5156 1.2969 0.875 0 1.5469-0.25 2.0625-0.76562 0.5-0.46875 0.75-1.1094 0.75-1.9062 0-0.64062-0.14062-1.1875-0.46875-1.5781-0.28125-0.35938-1.0781-0.96875-2.3438-1.875-1.25-0.82812-2.1875-1.625-2.8438-2.375-1.0312-1.2656-1.5781-2.8125-1.5781-4.7188 0-2.0938 0.60938-3.8125 1.8281-5.2188 1.0938-1.2656 2.5625-1.875 4.4375-1.875 1.4062 0 2.8125 0.40625 4.2031 1.1562z"/>
    </g>
    <g transform="translate(86.354 144.46)">
     <path d="m1.875-24.016h4.5l5.9062 14.516c-0.21875-1.0156-0.32812-2.125-0.35938-3.3125v-11.203h4.8125v24.016h-4.4531l-5.9062-14.469c0.10938 0.78125 0.17188 1.8281 0.25 3.0938v11.375h-4.75z"/>
    </g>
    <g transform="translate(104.96 144.46)">
     <path d="m1.875-24.016h9.5312v4.4688h-4.7812v5.2188h4.2188v4.5312h-4.2188v5.375h4.8281v4.4219h-9.5781zm4.8281-2.0469-4.5781-3.2344 1.625-2.3438 2.9531 2.0469 2.9844-2.0469 1.6094 2.3438z"/>
    </g>
   </g>
   <g transform="matrix(.69217 0 0 .69217 -19.964 6.1767)">
    <g transform="translate(152.06 144.46)">
     <path d="m1.875-24.016h4.75v9.4062h4.7812v-9.4062h4.75v24.016h-4.75v-10.109h-4.7812v10.109h-4.75z"/>
    </g>
    <g transform="translate(170.13 144.46)">
     <path d="m1.875-24.016h4.75v15.953c0 1.5781 0.14062 2.625 0.46875 3.125 0.39062 0.6875 1 1.0469 1.9062 1.0469 1.1094 0 1.8438-0.5 2.125-1.5156 0.10938-0.39062 0.17188-1.2969 0.17188-2.6562v-15.953h4.7656v17.891c0 0.9375-0.04687 1.625-0.1875 2.1719-0.10938 0.53125-0.28125 1.0312-0.60938 1.5469-1.1562 1.8594-3.2344 2.7969-6.2969 2.7969-2.0938 0-3.75-0.46875-4.9688-1.3594-1.1875-0.90625-1.875-2.2344-2.0625-4.0781-0.03125-0.25-0.0625-0.82812-0.0625-1.75z"/>
    </g>
   </g>
   <g transform="matrix(.69217 0 0 .69217 -19.964 6.1767)">
    <g transform="translate(221.47 144.46)">
     <path d="m1.875-24.016h4.75v19.516h4.9688v4.5h-9.7188z"/>
    </g>
    <g transform="translate(233.32 144.46)">
     <path d="m5.7188-24.016h4.9688l5.7656 24.016h-5.0469l-0.89062-4.0312h-4.7969l-0.85938 4.0312h-4.7188zm4.1094 16.281-0.79688-3.75c-0.46875-2.2031-0.78125-4.3125-1-6.3281-0.14062 2.3281-0.4375 4.5938-0.875 6.7656l-0.71875 3.3125zm0.5-23.375 2.5312 2.3125-5.125 2.7344-1.5781-1.7969z"/>
    </g>
    <g transform="translate(249.87 144.46)">
     <path d="m1.875-24.016h4.75v10.734l4-10.734h4.8594l-4.4375 11.125 5.0156 12.891h-5.0156l-4.4219-12.203v12.203h-4.75z"/>
    </g>
   </g>
   <g transform="matrix(.69217 0 0 .69217 -19.964 6.1767)">
    <g transform="translate(99.462 61.244)">
     <path d="m2.5781-36.594h11.688v27.266h26v9.3281h-37.688z"/>
    </g>
    <g transform="translate(139.73 61.244)">
     <path d="m2.5781-36.594h40.484v8.6094h-29.516v5.2656h28.031v8.0156h-28.031v5.9219h29.734v8.7812h-40.703z"/>
    </g>
    <g transform="translate(183.95 61.244)">
     <path d="m2.5781 0v-36.594h26.391c4.6562 0 7.7344 0.0625 9.1562 0.10938 1.4844 0.0625 2.9688 0.28125 4.5625 0.60938 3.6094 0.70312 6.0312 2.7969 7.125 6.2031 0.4375 1.25 0.71875 2.6875 0.82812 4.1094 0.15625 1.4844 0.21875 3.7344 0.21875 6.6875 0 3.2969-0.0625 5.7656-0.28125 7.4688-0.15625 1.6406-0.4375 3.1719-0.9375 4.5469-1.0938 3.2344-3.3438 5.2188-6.6875 5.9844-1.5938 0.32812-3.2969 0.59375-5.0938 0.70312-1.8125 0.10938-4.7812 0.17188-8.8906 0.17188zm10.969-9.3281h15.531c2.8438 0 4.9375-0.10938 6.3125-0.26562 1.3125-0.21875 2.2969-0.5625 2.8438-1 0.60938-0.48438 1.0469-1.3125 1.2656-2.4688 0.26562-1.0938 0.375-2.7969 0.375-5.0938 0-2.25-0.10938-3.9531-0.32812-5.1094-0.21875-1.1406-0.59375-2.0312-1.0938-2.625-0.59375-0.65625-1.4844-1.0938-2.625-1.2656-1.1562-0.15625-3.4688-0.28125-6.8594-0.28125h-15.422z"/>
    </g>
    <g transform="translate(236.67 61.244)"></g>
   </g>
   <g transform="matrix(.69217 0 0 .69217 -19.964 6.1767)">
    <g transform="translate(79.325 86.627)">
     <path d="m1.2812 0v-18.297h13.469c3.1562 0 5.0469 0.03125 5.6719 0.10938 0.64062 0.0625 1.2344 0.25 1.8125 0.60938 0.6875 0.4375 1.1875 1.0156 1.4375 1.75 0.23438 0.75 0.375 1.8906 0.375 3.4844 0 1.3125-0.07813 2.3125-0.25 2.9375-0.15625 0.625-0.45312 1.125-0.92188 1.4844-0.5 0.40625-1.2188 0.6875-2.2031 0.84375 1.1562 0.078125 2 0.42188 2.5 0.98438 0.29688 0.35938 0.5 0.78125 0.57812 1.2969 0.07813 0.48438 0.10938 1.5 0.10938 3.0938v1.7031h-5.4844v-0.98438c0-1.0156-0.03125-1.7344-0.10938-2.1719-0.07813-0.4375-0.21875-0.76562-0.40625-0.98438-0.23438-0.21875-0.5-0.35938-0.89062-0.40625-0.34375-0.0625-1.0938-0.09375-2.25-0.09375h-7.8594v4.6406zm5.5781-9.2188h7.8438c1.3594-0.015625 2.1562-0.046875 2.4375-0.078125 0.25-0.03125 0.46875-0.078125 0.65625-0.1875 0.25-0.17188 0.40625-0.39062 0.51562-0.6875 0.09375-0.29688 0.14062-0.73438 0.14062-1.375 0-0.57812-0.04687-1.0469-0.15625-1.3125-0.10938-0.29688-0.3125-0.51562-0.57812-0.65625-0.20312-0.078125-0.4375-0.14062-0.71875-0.17188-0.25 0-1.0469-0.03125-2.2969-0.03125h-7.8438z"/>
    </g>
    <g transform="translate(104.01 86.627)">
     <path d="m1.2812-18.297h20.25v4.3125h-14.766v2.625h14.016v4.0156h-14.016v2.9531h14.875v4.3906h-20.359z"/>
    </g>
    <g transform="translate(126.11 86.627)">
     <path d="m1.2812-18.297h5.5781v6.6406h3.0469l7.2344-6.75h8.5312l-10.594 9.0781 11.469 9.3281h-8.4531l-8.1875-7h-3.0469v7h-5.5781z"/>
    </g>
    <g transform="translate(152.11 86.627)">
     <path d="m1.2812-18.297h5.8438v13.641h13v4.6562h-18.844z"/>
    </g>
   </g>
   <g transform="matrix(.69217 0 0 .69217 -19.964 6.1767)">
    <g transform="translate(173.33 86.627)">
     <path d="m21.141 0-1.5938-3.0938h-12.062l-1.5938 3.0938h-6.3594l9.7031-18.297h8.6406l9.5781 18.297zm-3.5312-7.1094-3.5156-6.9375h-1.125l-3.5156 6.9375z"/>
    </g>
    <g transform="translate(200.31 86.627)">
     <path d="m1.2812-18.297h10.094l5.4688 11.875 5.4219-11.875h10.031v18.297h-5.4844l0.14062-13.719h-0.90625l-6.9062 13.719h-4.6094l-6.9062-13.719h-0.98438l0.125 13.719h-5.4844z"/>
    </g>
    <g transform="translate(233.88 86.627)">
     <path d="m21.141 0-1.5938-3.0938h-12.062l-1.5938 3.0938h-6.3594l9.7031-18.297h8.6406l9.5781 18.297zm-3.5312-7.1094-3.5156-6.9375h-1.125l-3.5156 6.9375z"/>
    </g>
   </g>
  </g>
 </g>
</svg>
